HIERARCHY
ROOT hip
{
  OFFSET 68.8281 84.2378 207.652
  CHANNELS 6 Xposition Yposition Zposition Zrotation Xrotation Yrotation
  JOINT abdomen
  {
    OFFSET 0 20.6881 -0.73152
    CHANNELS 3 Zrotation Xrotation Yrotation
    JOINT chest
    {
      OFFSET 0 11.7043 -0.48768
      CHANNELS 3 Zrotation Xrotation Yrotation
      JOINT neck
      {
        OFFSET 0 22.1894 -2.19456
        CHANNELS 3 Zrotation Xrotation Yrotation
        JOINT head
        {
          OFFSET -0.24384 7.07133 1.2192
          CHANNELS 3 Zrotation Xrotation Yrotation
          JOINT leftEye
          {
            OFFSET 4.14528 8.04674 8.04672
            CHANNELS 3 Zrotation Xrotation Yrotation
            End Site
            {
              OFFSET 1 0 0
            }
          }
          JOINT rightEye
          {
            OFFSET -3.6576 8.04674 8.04672
            CHANNELS 3 Zrotation Xrotation Yrotation
            End Site
            {
              OFFSET 1 0 0
            }
          }
        }
      }
      JOINT rCollar
      {
        OFFSET -2.68224 19.2634 -4.8768
        CHANNELS 3 Zrotation Xrotation Yrotation
        JOINT rShldr
        {
          OFFSET -8.77824 -1.95073 1.46304
          CHANNELS 3 Zrotation Xrotation Yrotation
          JOINT rForeArm
          {
            OFFSET -28.1742 -1.7115 0.48768
            CHANNELS 3 Zrotation Xrotation Yrotation
            JOINT rHand
            {
              OFFSET -22.5879 0.773209 7.07136
              CHANNELS 3 Zrotation Xrotation Yrotation
              JOINT rThumb1
              {
                OFFSET -1.2192 -0.487915 3.41376
                CHANNELS 3 Zrotation Xrotation Yrotation
                JOINT rThumb2
                {
                  OFFSET -3.37035 -0.52449 3.41376
                  CHANNELS 3 Zrotation Xrotation Yrotation
                  End Site
                  {
                    OFFSET -1.78271 -1.18214 1.43049
                  }
                }
              }
              JOINT rIndex1
              {
                OFFSET -7.75947 0.938293 5.60832
                CHANNELS 3 Zrotation Xrotation Yrotation
                JOINT rIndex2
                {
                  OFFSET -2.54057 -0.884171 1.56538
                  CHANNELS 3 Zrotation Xrotation Yrotation
                  End Site
                  {
                    OFFSET -1.62519 -0.234802 1.16502
                  }
                }
              }
              JOINT rMid1
              {
                OFFSET -8.24714 1.18213 3.41376
                CHANNELS 3 Zrotation Xrotation Yrotation
                JOINT rMid2
                {
                  OFFSET -3.10165 -0.590103 1.0647
                  CHANNELS 3 Zrotation Xrotation Yrotation
                  End Site
                  {
                    OFFSET -2.48547 -0.328903 0.83742
                  }
                }
              }
              JOINT rRing1
              {
                OFFSET -8.82822 0.546677 1.51678
                CHANNELS 3 Zrotation Xrotation Yrotation
                JOINT rRing2
                {
                  OFFSET -2.60934 -0.819778 -0.0198488
                  CHANNELS 3 Zrotation Xrotation Yrotation
                  End Site
                  {
                    OFFSET -2.33842 -0.294052 0.168128
                  }
                }
              }
              JOINT rPinky1
              {
                OFFSET -8.27202 -0.0477905 -0.4584
                CHANNELS 3 Zrotation Xrotation Yrotation
                JOINT rPinky2
                {
                  OFFSET -1.82734 -0.647385 -0.700984
                  CHANNELS 3 Zrotation Xrotation Yrotation
                  End Site
                  {
                    OFFSET -1.69225 -0.51767 -0.607171
                  }
                }
              }
            }
          }
        }
      }
      JOINT lCollar
      {
        OFFSET 2.68224 19.2634 -4.8768
        CHANNELS 3 Zrotation Xrotation Yrotation
        JOINT lShldr
        {
          OFFSET 8.77824 -1.95073 1.46304
          CHANNELS 3 Zrotation Xrotation Yrotation
          JOINT lForeArm
          {
            OFFSET 28.1742 -1.7115 0.48768
            CHANNELS 3 Zrotation Xrotation Yrotation
            JOINT lHand
            {
              OFFSET 22.5879 0.773209 7.07136
              CHANNELS 3 Zrotation Xrotation Yrotation
              JOINT lThumb1
              {
                OFFSET 1.2192 -0.487915 3.41376
                CHANNELS 3 Zrotation Xrotation Yrotation
                JOINT lThumb2
                {
                  OFFSET 3.37035 -0.52449 3.41376
                  CHANNELS 3 Zrotation Xrotation Yrotation
                  End Site
                  {
                    OFFSET 1.78271 -1.18214 1.43049
                  }
                }
              }
              JOINT lIndex1
              {
                OFFSET 7.75947 0.938293 5.60832
                CHANNELS 3 Zrotation Xrotation Yrotation
                JOINT lIndex2
                {
                  OFFSET 2.54057 -0.884171 1.56538
                  CHANNELS 3 Zrotation Xrotation Yrotation
                  End Site
                  {
                    OFFSET 1.62519 -0.234802 1.16502
                  }
                }
              }
              JOINT lMid1
              {
                OFFSET 8.24714 1.18213 3.41376
                CHANNELS 3 Zrotation Xrotation Yrotation
                JOINT lMid2
                {
                  OFFSET 3.10165 -0.590103 1.0647
                  CHANNELS 3 Zrotation Xrotation Yrotation
                  End Site
                  {
                    OFFSET 2.48547 -0.328903 0.83742
                  }
                }
              }
              JOINT lRing1
              {
                OFFSET 8.82822 0.546677 1.51678
                CHANNELS 3 Zrotation Xrotation Yrotation
                JOINT lRing2
                {
                  OFFSET 2.60934 -0.819778 -0.0198488
                  CHANNELS 3 Zrotation Xrotation Yrotation
                  End Site
                  {
                    OFFSET 2.33842 -0.294052 0.168128
                  }
                }
              }
              JOINT lPinky1
              {
                OFFSET 8.27202 -0.0477905 -0.4584
                CHANNELS 3 Zrotation Xrotation Yrotation
                JOINT lPinky2
                {
                  OFFSET 1.82734 -0.647385 -0.700984
                  CHANNELS 3 Zrotation Xrotation Yrotation
                  End Site
                  {
                    OFFSET 1.69225 -0.51767 -0.607171
                  }
                }
              }
            }
          }
        }
      }
    }
  }
  JOINT rButtock
  {
    OFFSET -8.77824 4.35084 1.2192
    CHANNELS 3 Zrotation Xrotation Yrotation
    JOINT rThigh
    {
      OFFSET 0 -1.70687 -2.19456
      CHANNELS 3 Zrotation Xrotation Yrotation
      JOINT rShin
      {
        OFFSET 0 -36.8199 0.73152
        CHANNELS 3 Zrotation Xrotation Yrotation
        JOINT rFoot
        {
          OFFSET 0.73152 -45.1104 -5.12064
          CHANNELS 3 Zrotation Xrotation Yrotation
          End Site
          {
            OFFSET -1.1221 -3.69964 12.103
          }
        }
      }
    }
  }
  JOINT lButtock
  {
    OFFSET 8.77824 4.35084 1.2192
    CHANNELS 3 Zrotation Xrotation Yrotation
    JOINT lThigh
    {
      OFFSET 0 -1.70687 -2.19456
      CHANNELS 3 Zrotation Xrotation Yrotation
      JOINT lShin
      {
        OFFSET 0 -36.8199 0.73152
        CHANNELS 3 Zrotation Xrotation Yrotation
        JOINT lFoot
        {
          OFFSET -0.73152 -45.1104 -5.12064
          CHANNELS 3 Zrotation Xrotation Yrotation
          End Site
          {
            OFFSET 1.1221 -3.69964 12.103
          }
        }
      }
    }
  }
}
MOTION
Frames:	4
Frame Time:	0.00833333
53.1986 84.318 -81.5886 -7.18569 1.60124 9.25336 8.95077 -0.806133 5.00921 -1.9946 2.01509 1.65744 -0.861031 18.1658 -3.79836 5.71595 -26.3006 -6.13358 -0 0 0 -0 0 0 -4.2224e-014 4.68906e-014 2.08625e-013 76.9841 32.0098 -4.27453 -14.0688 -7.01 25.6928 -0.0394477 5.67399 0.800053 3.32672e-010 -1.03495e-009 7.844e-010 5.79942e-010 -1.79196e-009 1.35477e-009 3.32682e-010 -1.03496e-009 7.84384e-010 7.73091 5.47488 0.417314 3.32679e-010 -1.03496e-009 7.84409e-010 2.90554 0.965183 0.102902 3.32677e-010 -1.03496e-009 7.84403e-010 10.2786 0.731801 0.0259123 3.32665e-010 -1.03495e-009 7.84413e-010 2.22167 -0.733487 -0.20892 -4.2315e-014 4.68855e-014 2.08451e-013 -74.8224 38.1505 1.39863 9.28345 -3.71713 -16.4645 0.0717067 -7.6554 1.08231 5.13328e-011 -2.34377e-010 7.49364e-010 8.42096e-011 -4.0788e-010 1.29464e-009 5.13219e-011 -2.34376e-010 7.49378e-010 -7.73091 5.47488 -0.417314 5.13355e-011 -2.34375e-010 7.49369e-010 -2.90554 0.965183 -0.102902 5.13279e-011 -2.34376e-010 7.49368e-010 -10.2786 0.731801 -0.0259123 5.13358e-011 -2.34377e-010 7.49361e-010 -2.22167 -0.733487 0.20892 -2.03217e-016 0 -3.88251e-019 9.46857 -5.33289 4.23868 0.0183331 15.4698 0.461281 -4.55691 -18.8382 -14.3308 2.03217e-016 0 3.88251e-019 16.7568 -30.8421 8.52493 0.658978 51.6535 -1.16197 0.20875 2.11962 -4.21008 
53.2512 84.2868 -80.6761 -7.14364 1.67417 8.92558 8.88909 -0.83927 5.32473 -2.15304 1.96872 1.73488 -0.870798 18.2582 -3.76051 5.55307 -26.4027 -6.09357 -0 0 0 -0 0 0 -8.91184e-014 3.63593e-014 3.50132e-013 76.4949 32.0828 -3.78191 -14.2413 -7.15077 26.041 -0.0330478 5.19525 0.732154 1.35775e-010 -1.27891e-009 1.15649e-009 2.41704e-010 -2.21653e-009 1.99922e-009 1.35787e-010 -1.27892e-009 1.15647e-009 7.73091 5.47488 0.417314 1.35783e-010 -1.27893e-009 1.15649e-009 2.90554 0.965183 0.102902 1.35779e-010 -1.27892e-009 1.15649e-009 10.2786 0.731801 0.0259123 1.35766e-010 -1.27892e-009 1.1565e-009 2.22167 -0.733487 -0.20892 -8.92606e-014 3.63514e-014 3.49943e-013 -75.0458 37.394 1.97232 9.33066 -3.74445 -16.5521 0.0835474 -8.2424 1.16646 -7.92768e-011 -5.95782e-010 7.63271e-010 -1.43911e-010 -1.03404e-009 1.31738e-009 -7.92908e-011 -5.95783e-010 7.63282e-010 -7.73091 5.47488 -0.417314 -7.92746e-011 -5.9578e-010 7.63277e-010 -2.90554 0.965183 -0.102902 -7.92824e-011 -5.95781e-010 7.63276e-010 -10.2786 0.731801 -0.0259123 -7.92742e-011 -5.9578e-010 7.6327e-010 -2.22167 -0.733487 0.20892 -2.03217e-016 0 -3.88251e-019 9.51458 -4.60559 4.40052 0.0233014 15.2066 0.508397 -4.63974 -19.2274 -14.2583 2.03217e-016 0 3.88251e-019 16.7112 -31.1619 8.67858 0.577367 49.4535 -1.10682 0.186438 1.87396 -4.57584 
53.3058 84.2468 -79.7709 -7.09471 1.76962 8.60485 8.81312 -0.900821 5.62999 -2.31283 1.93252 1.80896 -0.895598 18.3127 -3.71899 5.43543 -26.4541 -6.03836 -0 0 0 -0 0 0 -9.2151e-014 2.42556e-014 4.00849e-013 76.0207 32.1318 -3.29985 -14.4135 -7.29301 26.3899 -0.0277593 4.7506 0.669203 -5.99121e-011 -1.16261e-009 1.18108e-009 -9.60209e-011 -2.01671e-009 2.04264e-009 -5.98994e-011 -1.16262e-009 1.18106e-009 7.73091 5.47488 0.417314 -5.99047e-011 -1.16263e-009 1.18108e-009 2.90554 0.965183 0.102902 -5.99105e-011 -1.16262e-009 1.18108e-009 10.2786 0.731801 0.0259123 -5.99238e-011 -1.16262e-009 1.18109e-009 2.22167 -0.733487 -0.20892 -9.23272e-014 2.42465e-014 4.0065e-013 -75.2536 36.693 2.51566 9.37055 -3.76756 -16.6263 0.0947441 -8.74596 1.2389 -3.24591e-010 -8.12563e-010 7.24117e-010 -5.68731e-010 -1.40943e-009 1.24806e-009 -3.24607e-010 -8.12565e-010 7.24126e-010 -7.73091 5.47488 -0.417314 -3.2459e-010 -8.12561e-010 7.24123e-010 -2.90554 0.965183 -0.102902 -3.24597e-010 -8.12562e-010 7.24122e-010 -10.2786 0.731801 -0.0259123 -3.24589e-010 -8.1256e-010 7.24117e-010 -2.22167 -0.733487 0.20892 -2.03217e-016 0 -3.88251e-019 9.52466 -3.89754 4.54074 0.0283821 14.9295 0.550596 -4.70667 -19.6051 -14.1391 2.03217e-016 0 3.88251e-019 16.6276 -31.4169 8.75935 0.501484 47.1033 -1.05341 0.171078 1.64525 -4.7771 
53.3656 84.1966 -78.875 -7.03844 1.89563 8.29465 8.72326 -0.998858 5.92663 -2.47819 1.90968 1.87982 -0.944676 18.3096 -3.67323 5.38535 -26.4258 -5.96305 -0 0 0 -0 0 0 -1.49909e-014 4.76461e-015 3.02562e-013 75.5704 32.1455 -2.83185 -14.5891 -7.43994 26.7466 -0.0232887 4.34365 0.611657 -3.16997e-010 -3.53537e-010 5.88925e-010 -5.42475e-010 -6.16827e-010 1.01957e-009 -3.16985e-010 -3.53546e-010 5.88909e-010 7.73091 5.47488 0.417314 -3.16991e-010 -3.53553e-010 5.88927e-010 2.90554 0.965183 0.102902 -3.16996e-010 -3.53551e-010 5.88926e-010 10.2786 0.731801 0.0259123 -3.1701e-010 -3.53547e-010 5.88936e-010 2.22167 -0.733487 -0.20892 -1.51803e-014 4.75687e-015 3.0236e-013 -75.4434 36.0756 3.02552 9.40709 -3.78874 -16.6943 0.104651 -9.17796 1.30116 -8.71908e-010 -8.43395e-010 5.80568e-010 -1.51295e-009 -1.46223e-009 9.97084e-010 -8.71924e-010 -8.43397e-010 5.80576e-010 -7.73091 5.47488 -0.417314 -8.71906e-010 -8.43393e-010 5.80572e-010 -2.90554 0.965183 -0.102902 -8.71914e-010 -8.43393e-010 5.80572e-010 -10.2786 0.731801 -0.0259123 -8.71904e-010 -8.4339e-010 5.80567e-010 -2.22167 -0.733487 0.20892 -2.03217e-016 0 -3.88251e-019 9.49468 -3.22039 4.65287 0.03372 14.6421 0.588334 -4.75412 -19.9735 -13.9613 2.03217e-016 0 3.88251e-019 16.497 -31.6156 8.75892 0.432062 44.5904 -1.00286 0.169727 1.45072 -4.77252 
